<?xml version="1.0" encoding="UTF-8" standalone="no"?>
<svg
   xmlns:dc="http://purl.org/dc/elements/1.1/"
   xmlns:cc="http://creativecommons.org/ns#"
   xmlns:rdf="http://www.w3.org/1999/02/22-rdf-syntax-ns#"
   xmlns:svg="http://www.w3.org/2000/svg"
   xmlns="http://www.w3.org/2000/svg"
   version="1.1"
   id="svg10"
   width="470.79999"
   height="105.753"
   viewBox="0 0 470.79999 105.753">
  <metadata
     id="metadata16">
    <rdf:RDF>
      <cc:Work
         rdf:about="">
        <dc:format>image/svg+xml</dc:format>
        <dc:type
           rdf:resource="http://purl.org/dc/dcmitype/StillImage" />
        <dc:title></dc:title>
      </cc:Work>
    </rdf:RDF>
  </metadata>
  <defs
     id="defs14" />
  <g
     id="g18">
    <path
       style="fill:#000000"
       d="m 283.24792,100.11035 c -0.41312,-0.668437 0.30663,-1.973967 1.68931,-3.064177 3.02558,-2.3856 24.36736,-22.349507 32.14267,-30.067466 3.2565,-3.232487 5.53341,-6.277134 5.15372,-6.891483 -0.80489,-1.302349 -27.71724,-0.308195 -35.80713,1.322732 -9.3632,1.887627 -16.30633,1.990613 -18.02951,0.26743 -1.72955,-1.729551 -1.23295,-3.407783 1.00838,-3.407783 0.79254,0 1.44098,-0.431936 1.44098,-0.959858 0,-1.310426 7.47195,-3.456752 9.42493,-2.707323 2.70228,1.036962 1.8636,3.665574 -1.17493,3.682494 -1.5125,0.0084 -3.425,0.451531 -4.25,0.984687 -2.0388,1.317576 -0.0671,1.248098 12.5,-0.44048 5.5,-0.739004 16.41942,-1.410983 24.26538,-1.493285 11.74511,-0.123204 14.36535,0.110858 14.8312,1.324849 0.6846,1.784037 -6.10019,11.105868 -10.63294,14.608916 -4.94681,3.823054 -11.65343,9.855947 -20.46364,18.407937 -9.01409,8.74988 -11.03283,10.15698 -12.09842,8.43281 z M 6.5963443,95.189503 c -3.4023394,-1.98168 -1.2345599,-4.604523 5.2499997,-6.352087 5.313396,-1.43194 29.361531,-11.700726 43.5,-18.57492 6.6,-3.208953 14.025,-6.751728 16.5,-7.872832 9.907049,-4.487612 17,-9.400544 17,-11.775049 0,-1.015036 -1.970361,-1.345012 -8.031385,-1.345012 -6.441545,0 -8.152994,-0.316908 -8.645717,-1.600925 -0.719028,-1.873756 0.39421,-2.689657 6.034474,-4.422713 5.555214,-1.706923 20.479358,-7.538084 28.479594,-11.12755 6.5407,-2.934611 8.69848,-3.291319 7.38098,-1.220163 -0.76621,1.204512 -27.855217,12.827066 -32.467946,13.930391 -4.357735,1.042332 -3.218637,1.922647 2.790966,2.156909 6.554341,0.255496 7.459044,0.691299 7.459005,3.593068 -5.5e-5,4.076031 -7.888374,8.800451 -39.999971,23.956519 -18.238698,8.608322 -19.938176,9.373386 -30.5,13.730376 l -10,4.125225 8,-0.566423 c 9.57605,-0.678013 8.348677,0.540252 -2.856964,2.835766 -4.321331,0.88523 -7.9213307,1.59584 -7.9999997,1.57911 -0.07867,-0.0167 -0.930536,-0.48908 -1.893036,-1.04969 z M 71.344729,93.26699 c -0.544466,-0.880965 0.799615,-2.800358 4.1326,-5.901491 5.490241,-5.108325 5.766051,-5.338627 19.869015,-16.590645 5.499996,-4.388163 10.601446,-8.55381 11.336556,-9.256995 0.73511,-0.703185 2.98511,-2.500791 5,-3.994682 2.01489,-1.49389 6.58844,-5.357139 10.16344,-8.584996 8.51602,-7.689088 17.8415,-14.668578 19.59908,-14.668578 2.39617,0 1.54481,1.717133 -1.84908,3.729478 -1.7875,1.059866 -7.11253,5.266815 -11.83341,9.348776 -4.72088,4.08196 -11.4112,9.671746 -14.86739,12.421746 -13.015676,10.356256 -13.099526,10.446013 -11.76289,12.592138 1.57167,2.523492 6.65213,3.895312 14.4519,3.902285 5.87203,0.0053 6.22423,-0.126306 6,-2.241188 -0.31819,-3.001146 3.67462,-3.718888 5.16775,-0.928948 1.40213,2.619907 4.57186,3.281115 17.88964,3.731793 6.21257,0.210235 11.69742,0.630587 12.18854,0.934115 0.49111,0.303528 1.30125,-0.177736 1.80029,-1.069477 0.92993,-1.661696 9.69145,-3.835818 11.95602,-2.966821 2.55707,0.98124 1.34091,3.546103 -1.68143,3.546103 -3.31142,0 -5.02428,1.785405 -2.94544,3.070195 1.66578,1.029508 5.14675,0.266851 10.09658,-2.212095 4.51995,-2.263654 5.78984,-2.331004 5.78984,-0.307073 0,0.853064 -1.4625,2.230046 -3.25,3.05996 -1.7875,0.829913 -4.375,2.166031 -5.75,2.969151 -3.1022,1.811957 -8.18677,1.063998 -13,-1.912352 -3.12789,-1.934188 -5.07782,-2.186048 -18.34081,-2.368961 -8.16245,-0.11257 -15.36245,-0.620244 -16,-1.128165 -0.63756,-0.50792 -2.05919,-0.560732 -3.15919,-0.117361 -3.03052,1.221495 -15.54447,0.990325 -19.47393,-0.359741 -1.91066,-0.656457 -3.992556,-2.236962 -4.626446,-3.512234 -1.12886,-2.271064 -1.38607,-2.118191 -12.526072,7.445001 -6.255451,5.370023 -11.867359,10.419097 -12.470905,11.220167 -0.886638,1.176808 -1.2523,1.205788 -1.904258,0.150895 z M 202.84634,84.596048 c 0,-1.50333 7.04255,-8.376072 27.76514,-27.095683 10.23099,-9.242096 13.78265,-12.526538 22.23486,-20.561969 5.225,-4.967356 15.06135,-14.391088 21.85855,-20.941626 8.10974,-7.8154484 12.69703,-11.5715884 13.3431,-10.9255214 1.39893,1.398929 -1.55118,5.5475334 -6.56422,9.2309604 -2.27559,1.672033 -8.18832,6.96121 -13.13941,11.753727 -4.95109,4.792517 -11.96415,11.413667 -15.58458,14.713667 -5.84082,5.323881 -21.42816,19.612199 -28.90924,26.5 -11.2958,10.400001 -14.68134,13.946471 -13.66993,14.319757 1.86649,0.688877 -0.47448,2.558285 -4.11552,3.286493 -1.77031,0.354062 -3.21875,0.22815 -3.21875,-0.279805 z m 38.5,-17.817921 c -0.55,-0.18347 -2.18373,-0.593022 -3.63051,-0.910114 -4.47382,-0.980536 -4.27083,-4.135644 0.51858,-8.060207 2.31277,-1.895142 5.30909,-4.036814 6.65849,-4.75927 1.34939,-0.722455 3.57844,-2.037706 4.95344,-2.922778 39.33736,-25.321025 59.25931,-37.095288 64.83812,-38.320601 4.09899,-0.900288 4.49438,1.915463 0.41188,2.933152 -4.38144,1.092208 -9.00467,3.516171 -20.58399,10.792194 -5.95869,3.744226 -12.93369,7.95519 -15.5,9.357696 -2.5663,1.402506 -6.05522,3.524574 -7.75315,4.715707 -1.69793,1.191133 -9.44897,6.215697 -17.22454,11.165697 -18.77401,11.951717 -19.26787,13.340654 -4.88782,13.746567 4.78473,0.135061 8.6995,0.525956 8.6995,0.868656 0,1.313109 -13.35877,2.441157 -16.5,1.393301 z m 121.5,-11.341857 c 0,-0.458334 0.5625,-0.847832 1.25,-0.865553 1.88304,-0.04854 8.23018,-1.170184 9.83618,-1.738219 2.29815,-0.812847 44.28223,-4.423299 58.91382,-5.066337 7.425,-0.326319 17.20009,-0.787178 21.72242,-1.024131 4.52233,-0.236954 8.90983,-0.16704 9.75,0.155363 2.37086,0.909785 1.80284,3.31706 -1.03752,4.396961 -3.77037,1.433493 -4.88117,1.217894 -3.33344,-0.647001 1.2363,-1.489653 -0.041,-1.568795 -15.62756,-0.968252 -23.52558,0.906434 -56.00281,3.343883 -68.10224,5.111142 -11.68725,1.707057 -13.37166,1.788436 -13.37166,0.646027 z"
       id="path22" />
  </g>
</svg>
